<svg width="1440" height="800" viewBox="0 0 1440 800" fill="none" xmlns="http://www.w3.org/2000/svg">
<g clip-path="url(#clip0_1275_53946)">
<path d="M-923.061 -653.794L-923.051 -653.79L-923.042 -653.787C-682.464 -566.994 -480.948 -648.986 -268.879 -735.271C-256.83 -740.174 -244.747 -745.091 -232.62 -749.991C-7.03979 -841.144 233.571 -926.712 548.084 -813.032C626.704 -784.616 683.687 -748.572 725.109 -706.551C766.53 -664.532 792.412 -616.514 808.802 -564.117C825.195 -511.715 832.094 -454.933 835.544 -395.387C837.534 -361.037 838.376 -325.798 839.232 -289.954C839.861 -263.64 840.497 -237.001 841.601 -210.15C846.816 -83.3484 862.459 47.9222 937.056 170.49C1011.66 293.066 1145.18 406.872 1386.01 498.845C1867.21 682.609 1990.43 1185.61 1888.08 1645.22C1836.91 1875 1729.36 2093.89 1582.03 2256.5C1434.7 2419.1 1247.61 2525.42 1037.35 2530.15C826.901 2534.89 683.472 2555.75 573.563 2594.28C463.638 2632.82 387.272 2689.03 310.93 2764.43C270.293 2804.56 229.666 2850.12 183.987 2901.35C58.0508 3042.58 -106.284 3226.88 -415.104 3459.19C-835.755 3775.62 -1400.46 3714.07 -1816 3457.26C-2231.53 3200.46 -2497.68 2748.53 -2321.49 2284.38C-2233.33 2052.13 -2189.24 1891.18 -2178.21 1760.42C-2167.18 1629.63 -2189.24 1529.08 -2233.34 1417.65C-2257.51 1356.57 -2288.3 1292.23 -2323.89 1217.86C-2418.15 1020.87 -2546.11 753.466 -2674.09 289.707C-2755.51 -5.30737 -2741.15 -234.003 -2660.29 -405.545C-2579.44 -577.081 -2432.06 -691.543 -2247.25 -758.025C-1877.62 -890.998 -1358.39 -831.97 -923.061 -653.794Z" fill="white" fill-opacity="0.05" stroke="url(#paint0_linear_1275_53946)"/>
<path d="M-956.65 -423.731L-956.642 -423.727L-956.633 -423.724C-746.531 -345.829 -568.935 -413.762 -382.982 -484.891C-374.368 -488.187 -365.735 -491.489 -357.08 -494.784C-161.585 -569.208 45.2153 -639.946 310.441 -544.074C449.493 -493.805 514.211 -419.026 545.731 -330.181C571.465 -257.644 575.082 -175.724 578.866 -89.9882C579.721 -70.631 580.584 -51.0792 581.712 -31.397C587.834 75.4188 601.77 185.996 664.65 289.809C727.536 393.631 839.334 490.625 1041.06 570.372C1446.07 731.629 1555.27 1162.9 1470.55 1555.96C1385.84 1949.04 1107.27 2303.53 737.17 2311.28C554.243 2315.15 429.634 2333.52 334.36 2367.15C239.07 2400.79 173.154 2449.69 107.599 2514.56C73.7405 2548.07 39.9814 2585.84 2.32031 2627.97C-105.84 2748.96 -246.182 2905.96 -513.487 3101.5C-873.694 3365 -1352.84 3313.02 -1705.93 3094.97C-2059.03 2876.92 -2285.87 2492.92 -2141.73 2092.5C-2069.6 1898.59 -2033.42 1762.52 -2024.44 1650.61C-2015.45 1538.68 -2033.67 1450.95 -2070.28 1353.75C-2091.42 1297.62 -2118.68 1238.34 -2150.38 1169.42C-2228.46 999.641 -2333.45 771.351 -2440.1 387.46C-2508.41 140.99 -2495.95 -51.995 -2427.36 -198.069C-2358.78 -344.14 -2234.04 -443.375 -2077.67 -502.282C-1764.91 -620.105 -1325.68 -576.54 -956.65 -423.731Z" fill="white" fill-opacity="0.05" stroke="url(#paint1_linear_1275_53946)"/>
<path d="M-894.552 -136.046L-894.545 -136.043L-894.537 -136.04C-714.809 -66.9452 -560.966 -120.734 -401.074 -176.637C-396.008 -178.408 -390.935 -180.182 -385.855 -181.954C-220.443 -239.651 -47.4529 -295.558 168.488 -217.493C289.38 -173.778 348.084 -111.549 378.352 -38.6154C404.241 23.7676 409.344 94.0032 414.671 167.332C415.577 179.8 416.49 192.358 417.512 204.981C424.542 291.81 436.77 381.693 487.934 466.75C539.103 551.816 629.178 631.998 791.791 699.519C1120.62 838.27 1215.79 1197.81 1148.71 1524.33C1081.63 1850.85 852.361 2143.99 532.676 2150.02C377.275 2153.04 271.485 2168.92 190.845 2197.65C110.19 2226.38 54.7236 2267.96 -0.0437012 2322.32C-27.1768 2349.25 -54.1365 2379.31 -83.9038 2412.51C-174.288 2513.3 -290.56 2642.95 -516.179 2801.43C-815.944 3012 -1209.53 2969.6 -1500.18 2790.3C-1790.83 2611 -1978.37 2294.92 -1866.28 1958.25C-1810.18 1802.68 -1781.92 1691.48 -1774.98 1598.42C-1768.03 1505.35 -1782.41 1430.45 -1811.52 1347.47C-1829.67 1295.76 -1853.55 1240.89 -1881.56 1176.52C-1898.47 1137.65 -1916.89 1095.33 -1936.47 1048.15C-1988.46 922.8 -2048.63 763.113 -2110.42 542.834C-2165.63 344.911 -2155.06 187.636 -2098.74 67.0276C-2042.42 -53.5781 -1940.34 -137.586 -1812.4 -188.918C-1556.51 -291.59 -1197.28 -263.486 -894.552 -136.046Z" fill="white" fill-opacity="0.05" stroke="url(#paint2_linear_1275_53946)"/>
<path opacity="0.05" d="M-1452.19 884.761C-1568.36 481.083 -1111.25 316.413 -770.813 469.907C-537.978 571.444 -350.984 381.215 -115.907 466.239C222.715 588.783 -44.4799 816.245 292.811 988.402C646.288 1176.14 561.403 1853.88 123.038 1859.05C-278.255 1864.22 -163.794 2023.12 -521.949 2232.76C-880.105 2442.41 -1412.68 2139.6 -1316.51 1720.63C-1220.34 1405.08 -1310.5 1369.42 -1452.19 884.761Z" fill="white"/>
<path opacity="0.05" d="M-1122.77 1060.75C-1186.55 851.242 -916.82 675.442 -708.974 778.208C-544.948 859.305 -394.62 764.027 -258.123 813.434C7.80396 909.74 -137.559 1014.92 43.2898 1138.17C244.372 1280.9 255.805 1716.69 -81.72 1718.41C-372.905 1720.13 -287.649 1849.55 -524.912 1953.31C-762.175 2057.07 -1073.38 1898.47 -1041.32 1606.99C-1009.27 1444.8 -1033.81 1347.13 -1122.77 1060.75Z" fill="white"/>
</g>
<defs>
<linearGradient id="paint0_linear_1275_53946" x1="1022.5" y1="280" x2="1397.76" y2="542.548" gradientUnits="userSpaceOnUse">
<stop stop-color="white" stop-opacity="0"/>
<stop offset="1" stop-color="white" stop-opacity="0.15"/>
</linearGradient>
<linearGradient id="paint1_linear_1275_53946" x1="676" y1="285" x2="955.139" y2="550.778" gradientUnits="userSpaceOnUse">
<stop stop-color="white" stop-opacity="0"/>
<stop offset="1" stop-color="white" stop-opacity="0.15"/>
</linearGradient>
<linearGradient id="paint2_linear_1275_53946" x1="409" y1="301" x2="549.5" y2="550" gradientUnits="userSpaceOnUse">
<stop stop-color="white" stop-opacity="0"/>
<stop offset="1" stop-color="white" stop-opacity="0.15"/>
</linearGradient>
<clipPath id="clip0_1275_53946">
<rect width="1440" height="800" fill="white"/>
</clipPath>
</defs>
</svg>
