<svg width="1440" height="551" viewBox="0 0 1440 551" fill="none" xmlns="http://www.w3.org/2000/svg">
<g clip-path="url(#clip0_1601_56561)">
<rect width="1440" height="551" fill="url(#paint0_linear_1601_56561)"/>
<g clip-path="url(#clip1_1601_56561)">
<path d="M-669.685 -1101.12L-669.676 -1101.11L-669.668 -1101.11C-452.462 -966.083 -238.282 -1004.28 -12.8876 -1044.47C-0.0811121 -1046.75 12.7617 -1049.04 25.6431 -1051.31C265.267 -1093.45 518.428 -1126.99 802.343 -950.259C873.314 -906.081 921.533 -858.953 953.288 -809.222C985.042 -759.493 1000.35 -707.135 1005.46 -652.473C1010.57 -597.805 1005.48 -540.832 996.448 -481.875C991.236 -447.865 984.715 -413.223 978.082 -377.988C973.213 -352.122 968.284 -325.935 963.767 -299.443C942.44 -174.339 930.382 -42.6907 977.796 92.7325C1025.21 228.164 1132.08 367.299 1348.46 507.445C1780.79 787.46 1796.48 1305.1 1600.59 1733.28C1502.66 1947.36 1351.85 2139.02 1173.86 2267.35C995.878 2395.68 790.742 2460.67 584.112 2421.48C377.293 2382.26 232.667 2372.76 117.14 2387.55C1.59714 2402.33 -84.8073 2441.39 -175.186 2499.22C-223.294 2530 -272.525 2566.09 -327.877 2606.68C-480.482 2718.56 -679.618 2864.56 -1030.07 3027.41C-1507.44 3249.23 -2046.92 3071.33 -2399.8 2733.57C-2752.69 2395.8 -2918.81 1898.33 -2649.75 1481.09C-2515.13 1272.31 -2438.46 1124.08 -2400.42 998.49C-2362.38 872.876 -2363 769.932 -2382.9 651.757C-2393.82 586.984 -2410.52 517.644 -2429.83 437.486C-2480.97 225.177 -2550.39 -63.0232 -2578.9 -543.271C-2597.04 -848.775 -2535.34 -1069.46 -2420.51 -1220.38C-2305.68 -1371.3 -2137.68 -1452.53 -1943.08 -1479.04C-1553.84 -1532.06 -1058.32 -1366.11 -669.685 -1101.12Z" fill="white" fill-opacity="0.05" stroke="url(#paint1_linear_1601_56561)"/>
<path d="M-982.723 -1080.6L-982.714 -1080.59L-982.705 -1080.58C-765.499 -945.558 -551.32 -983.751 -325.925 -1023.94C-313.119 -1026.23 -300.276 -1028.52 -287.394 -1030.78C-47.7703 -1072.92 205.39 -1106.47 489.305 -929.734C560.276 -885.556 608.496 -838.428 640.251 -788.697C672.005 -738.967 687.311 -686.61 692.422 -631.948C697.533 -577.28 692.446 -520.307 683.411 -461.35C678.198 -427.339 671.677 -392.698 665.045 -357.463C660.176 -331.596 655.246 -305.41 650.73 -278.917C629.403 -153.814 617.345 -22.1653 664.759 113.258C712.176 248.69 819.045 387.824 1035.42 527.97C1467.76 807.986 1483.44 1325.62 1287.55 1753.81C1189.62 1967.88 1038.81 2159.54 860.825 2287.88C682.841 2416.21 477.705 2481.2 271.075 2442.01C64.255 2402.78 -80.371 2393.29 -195.897 2408.07C-311.44 2422.85 -397.845 2461.92 -488.223 2519.74C-536.332 2550.53 -585.562 2586.62 -640.914 2627.2C-793.52 2739.09 -992.656 2885.09 -1343.11 3047.93C-1820.47 3269.75 -2359.95 3091.86 -2712.84 2754.09C-3065.73 2416.32 -3231.85 1918.85 -2962.79 1501.61C-2828.17 1292.84 -2751.49 1144.61 -2713.46 1019.02C-2675.42 893.401 -2676.03 790.458 -2695.94 672.282C-2706.85 607.509 -2723.56 538.169 -2742.86 458.011C-2794 245.703 -2863.42 -42.4979 -2891.94 -522.746C-2910.08 -828.25 -2848.38 -1048.93 -2733.55 -1199.86C-2618.72 -1350.77 -2450.71 -1432.01 -2256.11 -1458.51C-1866.88 -1511.53 -1371.36 -1345.59 -982.723 -1080.6Z" fill="white" fill-opacity="0.05" stroke="url(#paint2_linear_1601_56561)"/>
<path d="M-1063.52 -862.584L-1063.51 -862.579L-1063.51 -862.574C-874.252 -742.601 -686.398 -772.03 -489.705 -802.843C-480.592 -804.27 -471.461 -805.701 -462.31 -807.12C-255.596 -839.167 -38.5946 -865.251 200.827 -716.208C326.348 -638.064 374.06 -551.439 386.372 -457.975C396.424 -381.668 382.888 -300.794 368.721 -216.151C365.522 -197.041 362.292 -177.739 359.293 -158.254C343.02 -52.5073 333.604 58.5461 373.467 173.185C413.334 287.833 502.463 405.997 683.138 526.034C1045.65 768.159 1062.56 1212.72 897.795 1579.49C733.016 1946.29 386.689 2234.93 23.099 2165.38C-156.619 2131.05 -282.32 2123.04 -382.512 2136.08C-482.72 2149.12 -557.379 2183.2 -635.015 2232.99C-675.113 2258.7 -716.002 2288.61 -761.616 2321.96C-892.618 2417.76 -1062.6 2542.06 -1364.79 2677.6C-1772 2860.24 -2229.8 2709.55 -2529.69 2422.69C-2829.58 2135.84 -2971.41 1712.99 -2746.99 1351.41C-2636.03 1176.8 -2572.29 1051.25 -2540.18 943.667C-2508.06 836.067 -2507.6 746.469 -2523.14 643.771C-2532.12 584.468 -2546.43 520.81 -2563.06 446.797C-2604.05 264.474 -2659.16 19.3143 -2683.46 -378.372C-2698.9 -633.668 -2646.49 -819.817 -2548.97 -948.39C-2451.45 -1076.96 -2308.77 -1148.02 -2143.56 -1173.04C-1813.11 -1223.1 -1392.6 -1088.95 -1063.52 -862.584Z" fill="white" fill-opacity="0.05" stroke="url(#paint3_linear_1601_56561)"/>
<path d="M-1062.74 -568.274L-1062.74 -568.269L-1062.73 -568.265C-901.35 -463.23 -739.675 -483.775 -571.643 -505.128C-566.318 -505.804 -560.988 -506.482 -555.65 -507.156C-381.845 -529.112 -201.002 -547.739 -6.07314 -426.384C103.054 -358.434 147.5 -285.336 161.903 -207.696C174.222 -141.287 164.575 -71.5304 154.503 1.29818C152.79 13.6815 151.066 26.1536 149.434 38.7131C138.215 125.1 131.441 215.558 163.754 309.411C196.071 403.273 267.458 500.466 412.428 600.395C705.116 804.63 723.266 1176.11 589.614 1481.48C455.954 1786.85 170.624 2025.78 -143.298 1965.04C-295.915 1935.61 -402.691 1929.09 -487.548 1940.38C-572.421 1951.68 -635.335 1980.78 -700.228 2022.53C-732.378 2043.22 -765.011 2067 -801.043 2093.26C-910.448 2173 -1051.19 2275.58 -1304.88 2383.56C-1641.95 2527.03 -2018.06 2403.53 -2264.96 2167.59C-2511.86 1931.66 -2629.4 1583.43 -2449.61 1277.51C-2362.31 1137.05 -2311.5 1034.18 -2285.32 944.616C-2259.13 855.033 -2257.58 778.781 -2268.76 691.562C-2275.73 637.203 -2287.65 578.558 -2301.63 509.767C-2310.07 468.23 -2319.27 422.994 -2328.58 372.768C-2353.31 239.337 -2378.88 70.6171 -2393.4 -157.701C-2406.15 -362.786 -2363.03 -514.403 -2282.81 -620.626C-2202.6 -726.847 -2085.25 -787.735 -1949.42 -811.276C-1677.75 -858.362 -1332.26 -756.007 -1062.74 -568.274Z" fill="white" fill-opacity="0.05" stroke="url(#paint4_linear_1601_56561)"/>
</g>
</g>
<defs>
<linearGradient id="paint0_linear_1601_56561" x1="720" y1="0" x2="174.686" y2="483.778" gradientUnits="userSpaceOnUse">
<stop stop-color="#436EE7"/>
<stop offset="1" stop-color="#5043E7"/>
</linearGradient>
<linearGradient id="paint1_linear_1601_56561" x1="1038.54" y1="217.645" x2="1350.85" y2="552.638" gradientUnits="userSpaceOnUse">
<stop stop-color="white" stop-opacity="0"/>
<stop offset="1" stop-color="white" stop-opacity="0.15"/>
</linearGradient>
<linearGradient id="paint2_linear_1601_56561" x1="725.504" y1="238.171" x2="1037.81" y2="573.163" gradientUnits="userSpaceOnUse">
<stop stop-color="white" stop-opacity="0"/>
<stop offset="1" stop-color="white" stop-opacity="0.15"/>
</linearGradient>
<linearGradient id="paint3_linear_1601_56561" x1="385.57" y1="170.846" x2="603.189" y2="488.964" gradientUnits="userSpaceOnUse">
<stop stop-color="white" stop-opacity="0"/>
<stop offset="1" stop-color="white" stop-opacity="0.15"/>
</linearGradient>
<linearGradient id="paint4_linear_1601_56561" x1="121.098" y1="130.849" x2="206.619" y2="403.663" gradientUnits="userSpaceOnUse">
<stop stop-color="white" stop-opacity="0"/>
<stop offset="1" stop-color="white" stop-opacity="0.15"/>
</linearGradient>
<clipPath id="clip0_1601_56561">
<rect width="1440" height="551" fill="white"/>
</clipPath>
<clipPath id="clip1_1601_56561">
<rect width="4651" height="4543" fill="white" transform="translate(-2785.19 -1743) rotate(12.0292)"/>
</clipPath>
</defs>
</svg>
