<svg width="1340" height="544" viewBox="0 0 1340 544" fill="none" xmlns="http://www.w3.org/2000/svg">
<g clip-path="url(#clip0_1716_58327)" filter="url(#filter0_d_1716_58327)">
<rect width="1200" height="404" transform="translate(70 46)" fill="url(#paint0_linear_1716_58327)"/>
<g clip-path="url(#clip1_1716_58327)">
<path d="M-973.061 -808.794L-973.051 -808.79L-973.042 -808.787C-732.464 -721.994 -530.948 -803.986 -318.879 -890.271C-306.83 -895.174 -294.747 -900.091 -282.62 -904.991C-57.0398 -996.144 183.571 -1081.71 498.084 -968.032C576.704 -939.616 633.687 -903.572 675.109 -861.551C716.53 -819.532 742.412 -771.514 758.802 -719.117C775.195 -666.715 782.094 -609.933 785.544 -550.387C787.534 -516.037 788.376 -480.798 789.232 -444.954C789.861 -418.64 790.497 -392.001 791.601 -365.15C796.816 -238.348 812.459 -107.078 887.056 15.49C961.657 138.066 1095.18 251.872 1336.01 343.845C1817.21 527.609 1940.43 1030.61 1838.08 1490.22C1786.91 1720 1679.36 1938.89 1532.03 2101.5C1384.7 2264.1 1197.61 2370.42 987.354 2375.15C776.901 2379.89 633.472 2400.75 523.563 2439.28C413.638 2477.82 337.272 2534.03 260.93 2609.43C220.293 2649.56 179.666 2695.12 133.987 2746.35C8.05078 2887.58 -156.284 3071.88 -465.104 3304.19C-885.755 3620.62 -1450.46 3559.07 -1866 3302.26C-2281.53 3045.46 -2547.68 2593.53 -2371.49 2129.38C-2283.33 1897.13 -2239.24 1736.18 -2228.21 1605.42C-2217.18 1474.63 -2239.24 1374.08 -2283.34 1262.65C-2307.51 1201.57 -2338.3 1137.23 -2373.89 1062.86C-2468.15 865.87 -2596.11 598.466 -2724.09 134.707C-2805.51 -160.307 -2791.15 -389.003 -2710.29 -560.545C-2629.44 -732.081 -2482.06 -846.543 -2297.25 -913.025C-1927.62 -1046 -1408.39 -986.97 -973.061 -808.794Z" fill="white" fill-opacity="0.05" stroke="url(#paint1_linear_1716_58327)"/>
<path d="M-1006.65 -578.731L-1006.64 -578.727L-1006.63 -578.724C-796.531 -500.829 -618.935 -568.762 -432.982 -639.891C-424.368 -643.187 -415.735 -646.489 -407.08 -649.784C-211.585 -724.208 -4.78467 -794.946 260.441 -699.074C399.493 -648.805 464.211 -574.026 495.731 -485.181C521.465 -412.644 525.082 -330.724 528.866 -244.988C529.721 -225.631 530.584 -206.079 531.712 -186.397C537.834 -79.5812 551.77 30.996 614.65 134.809C677.536 238.631 789.334 335.625 991.058 415.372C1396.07 576.629 1505.27 1007.9 1420.55 1400.96C1335.84 1794.04 1057.27 2148.53 687.17 2156.28C504.243 2160.15 379.634 2178.52 284.36 2212.15C189.07 2245.79 123.154 2294.69 57.5989 2359.56C23.7405 2393.07 -10.0186 2430.84 -47.6797 2472.97C-155.84 2593.96 -296.182 2750.96 -563.487 2946.5C-923.694 3210 -1402.84 3158.02 -1755.93 2939.97C-2109.03 2721.92 -2335.87 2337.92 -2191.73 1937.5C-2119.6 1743.59 -2083.42 1607.52 -2074.44 1495.61C-2065.45 1383.68 -2083.67 1295.95 -2120.28 1198.75C-2141.42 1142.62 -2168.68 1083.34 -2200.38 1014.42C-2278.46 844.641 -2383.45 616.351 -2490.1 232.46C-2558.41 -14.0096 -2545.95 -206.995 -2477.36 -353.069C-2408.78 -499.14 -2284.04 -598.375 -2127.67 -657.282C-1814.91 -775.105 -1375.68 -731.54 -1006.65 -578.731Z" fill="white" fill-opacity="0.05" stroke="url(#paint2_linear_1716_58327)"/>
<path d="M-944.552 -291.046L-944.545 -291.043L-944.537 -291.04C-764.809 -221.945 -610.966 -275.734 -451.074 -331.637C-446.008 -333.408 -440.935 -335.182 -435.855 -336.954C-270.443 -394.651 -97.4529 -450.558 118.488 -372.493C239.38 -328.778 298.084 -266.549 328.352 -193.615C354.241 -131.232 359.344 -60.9968 364.671 12.3317C365.577 24.8 366.49 37.3577 367.512 49.9814C374.542 136.81 386.77 226.693 437.934 311.75C489.103 396.816 579.178 476.998 741.791 544.519C1070.62 683.27 1165.79 1042.81 1098.71 1369.33C1031.63 1695.85 802.361 1988.99 482.676 1995.02C327.275 1998.04 221.485 2013.92 140.845 2042.65C60.1897 2071.38 4.72363 2112.96 -50.0437 2167.32C-77.1768 2194.25 -104.136 2224.31 -133.904 2257.51C-224.288 2358.3 -340.56 2487.95 -566.179 2646.43C-865.944 2857 -1259.53 2814.6 -1550.18 2635.3C-1840.83 2456 -2028.37 2139.92 -1916.28 1803.25C-1860.18 1647.68 -1831.92 1536.48 -1824.98 1443.42C-1818.03 1350.35 -1832.41 1275.45 -1861.52 1192.47C-1879.67 1140.76 -1903.55 1085.89 -1931.56 1021.52C-1948.47 982.655 -1966.89 940.328 -1986.47 893.146C-2038.46 767.8 -2098.63 608.113 -2160.42 387.834C-2215.63 189.911 -2205.06 32.6355 -2148.74 -87.9724C-2092.42 -208.578 -1990.34 -292.586 -1862.4 -343.918C-1606.51 -446.59 -1247.28 -418.486 -944.552 -291.046Z" fill="white" fill-opacity="0.05" stroke="url(#paint3_linear_1716_58327)"/>
<path opacity="0.05" d="M-1502.19 729.761C-1618.36 326.083 -1161.25 161.413 -820.813 314.907C-587.978 416.444 -400.984 226.215 -165.907 311.239C172.715 433.783 -94.4799 661.245 242.811 833.402C596.288 1021.14 511.403 1698.88 73.0378 1704.05C-328.255 1709.22 -213.794 1868.12 -571.949 2077.76C-930.105 2287.41 -1462.68 1984.6 -1366.51 1565.63C-1270.34 1250.08 -1360.5 1214.42 -1502.19 729.761Z" fill="white"/>
</g>
</g>
<defs>
<filter id="filter0_d_1716_58327" x="0" y="0" width="1340" height="544" filterUnits="userSpaceOnUse" color-interpolation-filters="sRGB">
<feFlood flood-opacity="0" result="BackgroundImageFix"/>
<feColorMatrix in="SourceAlpha" type="matrix" values="0 0 0 0 0 0 0 0 0 0 0 0 0 0 0 0 0 0 127 0" result="hardAlpha"/>
<feOffset dy="24"/>
<feGaussianBlur stdDeviation="35"/>
<feComposite in2="hardAlpha" operator="out"/>
<feColorMatrix type="matrix" values="0 0 0 0 0.230208 0 0 0 0 0.421458 0 0 0 0 0.708333 0 0 0 0.15 0"/>
<feBlend mode="normal" in2="BackgroundImageFix" result="effect1_dropShadow_1716_58327"/>
<feBlend mode="normal" in="SourceGraphic" in2="effect1_dropShadow_1716_58327" result="shape"/>
</filter>
<linearGradient id="paint0_linear_1716_58327" x1="600" y1="0" x2="197.313" y2="406.028" gradientUnits="userSpaceOnUse">
<stop stop-color="#436EE7"/>
<stop offset="1" stop-color="#5043E7"/>
</linearGradient>
<linearGradient id="paint1_linear_1716_58327" x1="972.5" y1="125" x2="1347.76" y2="387.548" gradientUnits="userSpaceOnUse">
<stop stop-color="white" stop-opacity="0"/>
<stop offset="1" stop-color="white" stop-opacity="0.15"/>
</linearGradient>
<linearGradient id="paint2_linear_1716_58327" x1="626" y1="130" x2="905.139" y2="395.778" gradientUnits="userSpaceOnUse">
<stop stop-color="white" stop-opacity="0"/>
<stop offset="1" stop-color="white" stop-opacity="0.15"/>
</linearGradient>
<linearGradient id="paint3_linear_1716_58327" x1="359" y1="146" x2="499.5" y2="395" gradientUnits="userSpaceOnUse">
<stop stop-color="white" stop-opacity="0"/>
<stop offset="1" stop-color="white" stop-opacity="0.15"/>
</linearGradient>
<clipPath id="clip0_1716_58327">
<rect width="1200" height="404" fill="white" transform="translate(70 46)"/>
</clipPath>
<clipPath id="clip1_1716_58327">
<rect width="1440" height="580" fill="white" transform="translate(-50 -45)"/>
</clipPath>
</defs>
</svg>
