

<svg width="33" height="32" viewBox="0 0 33 32" fill="none" xmlns="http://www.w3.org/2000/svg">
<path d="M10.3891 14.7768C10.9871 12.5453 13.2809 10.2515 15.5124 9.65353L29.4243 5.92527C31.6558 5.32726 32.98 6.65144 32.382 8.88291L28.6537 22.7949C28.0557 25.0264 25.762 27.3201 23.5305 27.9181L9.6185 31.6464C7.38703 32.2444 6.06285 30.9202 6.66086 28.6887L10.3891 14.7768Z" fill="#151C33"/>
<path d="M4.81101 9.19961C5.40902 6.96814 7.70276 4.6744 9.93423 4.07639L23.8462 0.348117C26.0777 -0.249893 27.4019 1.07429 26.8039 3.30576L23.0756 17.2177C22.4776 19.4492 20.1838 21.743 17.9524 22.341L4.04038 26.0692C1.80891 26.6672 0.484728 25.3431 1.08274 23.1116L4.81101 9.19961Z" fill="url(#paint0_linear_824_53680)"/>
<defs>
<linearGradient id="paint0_linear_824_53680" x1="16.8902" y1="2.21225" x2="1.78663" y2="3.39974" gradientUnits="userSpaceOnUse">
<stop stop-color="#436EE7"/>
<stop offset="1" stop-color="#5043E7"/>
</linearGradient>
</defs>
</svg>
