<svg width="163" height="32" viewBox="0 0 163 32" fill="none" xmlns="http://www.w3.org/2000/svg">
<path d="M10.3891 14.7768C10.9871 12.5453 13.2809 10.2515 15.5124 9.65353L29.4243 5.92527C31.6558 5.32726 32.98 6.65144 32.382 8.88291L28.6537 22.7949C28.0557 25.0264 25.762 27.3201 23.5305 27.9181L9.6185 31.6464C7.38703 32.2444 6.06285 30.9202 6.66086 28.6887L10.3891 14.7768Z" fill="#151C33"/>
<path d="M4.81101 9.19961C5.40902 6.96814 7.70276 4.6744 9.93423 4.07639L23.8462 0.348117C26.0777 -0.249893 27.4019 1.07429 26.8039 3.30576L23.0756 17.2177C22.4776 19.4492 20.1838 21.743 17.9524 22.341L4.04038 26.0692C1.80891 26.6672 0.484728 25.3431 1.08274 23.1116L4.81101 9.19961Z" fill="#151C33"/>
<path d="M4.81101 9.19961C5.40902 6.96814 7.70276 4.6744 9.93423 4.07639L23.8462 0.348117C26.0777 -0.249893 27.4019 1.07429 26.8039 3.30576L23.0756 17.2177C22.4776 19.4492 20.1838 21.743 17.9524 22.341L4.04038 26.0692C1.80891 26.6672 0.484728 25.3431 1.08274 23.1116L4.81101 9.19961Z" fill="url(#paint0_linear_824_53679)"/>
<path d="M56.338 24.1401C55.15 24.1401 54.05 23.9421 53.038 23.5461C52.026 23.1354 51.1387 22.5708 50.376 21.8521C49.628 21.1188 49.0413 20.2608 48.616 19.2781C48.2053 18.2954 48 17.2321 48 16.0881C48 14.9294 48.2053 13.8661 48.616 12.8981C49.0413 11.9154 49.628 11.0648 50.376 10.3461C51.1387 9.62744 52.0187 9.06277 53.016 8.65211C54.028 8.24144 55.1207 8.03611 56.294 8.03611C57.526 8.03611 58.6333 8.23411 59.616 8.63011C60.5987 9.01144 61.464 9.54677 62.212 10.2361L59.572 12.8761C59.2053 12.4654 58.7507 12.1428 58.208 11.9081C57.6653 11.6734 57.0273 11.5561 56.294 11.5561C55.6633 11.5561 55.084 11.6588 54.556 11.8641C54.0427 12.0694 53.5953 12.3774 53.214 12.7881C52.8327 13.1841 52.532 13.6608 52.312 14.2181C52.1067 14.7754 52.004 15.3988 52.004 16.0881C52.004 16.7774 52.1067 17.4008 52.312 17.9581C52.532 18.5154 52.8327 18.9994 53.214 19.4101C53.5953 19.8061 54.0427 20.1141 54.556 20.3341C55.084 20.5394 55.6633 20.6421 56.294 20.6421C57.0273 20.6421 57.6727 20.5321 58.23 20.3121C58.7873 20.0774 59.264 19.7474 59.66 19.3221L62.3 21.9621C61.5373 22.6514 60.672 23.1868 59.704 23.5681C58.7507 23.9494 57.6287 24.1401 56.338 24.1401Z" fill="#151C33"/>
<path d="M63.7384 23.8981V13.1401H67.5664V23.8981H63.7384ZM67.5664 18.0461L65.8504 16.5941C66.2758 15.3768 66.8404 14.4601 67.5444 13.8441C68.2484 13.2281 69.1651 12.9201 70.2944 12.9201C70.8078 12.9201 71.2478 12.9861 71.6144 13.1181C71.9958 13.2501 72.3184 13.4554 72.5824 13.7341L70.3604 16.7041C70.2431 16.5721 70.0744 16.4694 69.8544 16.3961C69.6491 16.3081 69.4144 16.2641 69.1504 16.2641C68.6518 16.2641 68.2631 16.4181 67.9844 16.7261C67.7058 17.0194 67.5664 17.4594 67.5664 18.0461Z" fill="#151C33"/>
<path d="M78.3432 24.1401C77.1845 24.1401 76.1505 23.8981 75.2412 23.4141C74.3465 22.9154 73.6352 22.2408 73.1072 21.3901C72.5792 20.5248 72.3152 19.5568 72.3152 18.4861C72.3152 17.4154 72.5718 16.4621 73.0852 15.6261C73.6132 14.7754 74.3318 14.1081 75.2412 13.6241C76.1505 13.1254 77.1772 12.8761 78.3212 12.8761C79.4652 12.8761 80.4845 13.1254 81.3792 13.6241C82.2885 14.1081 83.0072 14.7754 83.5352 15.6261C84.0632 16.4621 84.3272 17.4154 84.3272 18.4861C84.3272 19.5568 84.0632 20.5248 83.5352 21.3901C83.0218 22.2408 82.3105 22.9154 81.4012 23.4141C80.5065 23.8981 79.4872 24.1401 78.3432 24.1401ZM78.3212 20.7301C78.7465 20.7301 79.1132 20.6421 79.4212 20.4661C79.7438 20.2754 79.9932 20.0114 80.1692 19.6741C80.3452 19.3368 80.4332 18.9481 80.4332 18.5081C80.4332 18.0681 80.3378 17.6868 80.1472 17.3641C79.9712 17.0268 79.7292 16.7701 79.4212 16.5941C79.1132 16.4034 78.7465 16.3081 78.3212 16.3081C77.9105 16.3081 77.5438 16.4034 77.2212 16.5941C76.8985 16.7848 76.6492 17.0488 76.4732 17.3861C76.2972 17.7088 76.2092 18.0901 76.2092 18.5301C76.2092 18.9554 76.2972 19.3368 76.4732 19.6741C76.6492 20.0114 76.8985 20.2754 77.2212 20.4661C77.5438 20.6421 77.9105 20.7301 78.3212 20.7301Z" fill="#151C33"/>
<path d="M88.0065 23.8981L84.5965 13.1401H88.2925L90.3165 20.9721L89.2165 20.9941L91.6145 13.1401H95.0245L97.4225 20.9941L96.3225 20.9721L98.3685 13.1401H102.064L98.6545 23.8981H95.2005L92.9125 16.4621H93.7705L91.4165 23.8981H88.0065Z" fill="#151C33"/>
<path d="M107.675 24.1181C106.633 24.1181 105.717 23.8761 104.925 23.3921C104.133 22.9081 103.509 22.2481 103.055 21.4121C102.615 20.5614 102.395 19.6008 102.395 18.5301C102.395 17.4448 102.615 16.4768 103.055 15.6261C103.509 14.7754 104.125 14.1154 104.903 13.6461C105.695 13.1621 106.619 12.9201 107.675 12.9201C108.349 12.9201 108.98 13.0448 109.567 13.2941C110.153 13.5288 110.645 13.8661 111.041 14.3061C111.437 14.7461 111.671 15.2448 111.745 15.8021V21.0601C111.671 21.6174 111.437 22.1308 111.041 22.6001C110.645 23.0694 110.153 23.4434 109.567 23.7221C108.98 23.9861 108.349 24.1181 107.675 24.1181ZM108.357 20.7081C108.782 20.7081 109.149 20.6201 109.457 20.4441C109.765 20.2534 110.007 19.9968 110.183 19.6741C110.373 19.3368 110.469 18.9481 110.469 18.5081C110.469 18.0828 110.381 17.7088 110.205 17.3861C110.029 17.0634 109.779 16.8068 109.457 16.6161C109.149 16.4254 108.789 16.3301 108.379 16.3301C107.968 16.3301 107.601 16.4254 107.279 16.6161C106.971 16.8068 106.721 17.0708 106.531 17.4081C106.355 17.7308 106.267 18.0974 106.267 18.5081C106.267 18.9334 106.355 19.3148 106.531 19.6521C106.707 19.9748 106.956 20.2314 107.279 20.4221C107.601 20.6128 107.961 20.7081 108.357 20.7081ZM114.077 23.8981H110.315V21.0161L110.865 18.3761L110.249 15.7801V7.86011H114.077V23.8981Z" fill="#151C33"/>
<path d="M116.993 23.8981V8.63011H119.061V23.8981H116.993ZM118.401 23.8981V22.0061H126.585V23.8981H118.401Z" fill="#151C33"/>
<path d="M133.124 24.1181C132.097 24.1181 131.173 23.8761 130.352 23.3921C129.53 22.9081 128.878 22.2554 128.394 21.4341C127.91 20.5981 127.668 19.6668 127.668 18.6401C127.668 17.6281 127.91 16.7188 128.394 15.9121C128.878 15.0908 129.53 14.4381 130.352 13.9541C131.173 13.4701 132.097 13.2281 133.124 13.2281C134.136 13.2281 135.052 13.4701 135.874 13.9541C136.71 14.4234 137.37 15.0688 137.854 15.8901C138.338 16.7114 138.58 17.6281 138.58 18.6401C138.58 19.6668 138.338 20.5981 137.854 21.4341C137.37 22.2554 136.71 22.9081 135.874 23.3921C135.052 23.8761 134.136 24.1181 133.124 24.1181ZM133.124 22.2041C133.784 22.2041 134.37 22.0501 134.884 21.7421C135.397 21.4341 135.8 21.0161 136.094 20.4881C136.387 19.9454 136.534 19.3294 136.534 18.6401C136.534 17.9654 136.38 17.3641 136.072 16.8361C135.778 16.3081 135.375 15.8974 134.862 15.6041C134.363 15.2961 133.784 15.1421 133.124 15.1421C132.464 15.1421 131.877 15.2961 131.364 15.6041C130.85 15.8974 130.447 16.3081 130.154 16.8361C129.86 17.3641 129.714 17.9654 129.714 18.6401C129.714 19.3294 129.86 19.9454 130.154 20.4881C130.447 21.0161 130.85 21.4341 131.364 21.7421C131.877 22.0501 132.464 22.2041 133.124 22.2041Z" fill="#151C33"/>
<path d="M145.255 24.1181C144.301 24.1181 143.436 23.8834 142.659 23.4141C141.881 22.9301 141.265 22.2774 140.811 21.4561C140.371 20.6348 140.151 19.7108 140.151 18.6841C140.151 17.6574 140.371 16.7334 140.811 15.9121C141.265 15.0908 141.874 14.4381 142.637 13.9541C143.414 13.4701 144.287 13.2281 145.255 13.2281C146.047 13.2281 146.751 13.3968 147.367 13.7341C147.997 14.0568 148.503 14.5114 148.885 15.0981C149.266 15.6701 149.479 16.3374 149.523 17.1001V20.2461C149.479 20.9941 149.266 21.6614 148.885 22.2481C148.518 22.8348 148.019 23.2968 147.389 23.6341C146.773 23.9568 146.061 24.1181 145.255 24.1181ZM145.585 22.2481C146.567 22.2481 147.359 21.9181 147.961 21.2581C148.562 20.5834 148.863 19.7254 148.863 18.6841C148.863 17.9654 148.723 17.3421 148.445 16.8141C148.181 16.2714 147.799 15.8534 147.301 15.5601C146.802 15.2521 146.223 15.0981 145.563 15.0981C144.903 15.0981 144.316 15.2521 143.803 15.5601C143.304 15.8681 142.908 16.2934 142.615 16.8361C142.336 17.3641 142.197 17.9728 142.197 18.6621C142.197 19.3661 142.336 19.9894 142.615 20.5321C142.908 21.0601 143.311 21.4781 143.825 21.7861C144.338 22.0941 144.925 22.2481 145.585 22.2481ZM148.731 23.8981V21.0821L149.105 18.5301L148.731 16.0001V13.4481H150.733V23.8981H148.731Z" fill="#151C33"/>
<path d="M161.007 23.8981V17.8041C161.007 17.0121 160.758 16.3594 160.259 15.8461C159.761 15.3328 159.115 15.0761 158.323 15.0761C157.795 15.0761 157.326 15.1934 156.915 15.4281C156.505 15.6628 156.182 15.9854 155.947 16.3961C155.713 16.8068 155.595 17.2761 155.595 17.8041L154.781 17.3421C154.781 16.5501 154.957 15.8461 155.309 15.2301C155.661 14.6141 156.153 14.1301 156.783 13.7781C157.414 13.4114 158.125 13.2281 158.917 13.2281C159.709 13.2281 160.406 13.4261 161.007 13.8221C161.623 14.2181 162.107 14.7388 162.459 15.3841C162.811 16.0148 162.987 16.6894 162.987 17.4081V23.8981H161.007ZM153.615 23.8981V13.4481H155.595V23.8981H153.615Z" fill="#151C33"/>
<defs>
<linearGradient id="paint0_linear_824_53679" x1="16.8902" y1="2.21225" x2="1.78663" y2="3.39974" gradientUnits="userSpaceOnUse">
<stop stop-color="#436EE7"/>
<stop offset="1" stop-color="#5043E7"/>
</linearGradient>
</defs>
</svg>
