<svg width="137" height="48" viewBox="0 0 137 48" fill="none" xmlns="http://www.w3.org/2000/svg">
<g opacity="0.5">
<path fill-rule="evenodd" clip-rule="evenodd" d="M66.4721 47.9818L58.9101 46.1779V15.7297L66.4721 14.2902V47.9818ZM119.369 40.8025C113.884 40.8207 109.438 36.3929 109.402 30.9082C109.402 30.89 109.402 30.8718 109.402 30.8536C109.402 25.46 113.83 21.0322 119.351 21.0322C124.872 21.0322 129.3 25.46 129.3 30.8536C129.318 36.3382 124.872 40.7843 119.406 40.8025C119.406 40.8025 119.387 40.8025 119.369 40.8025ZM136.516 30.8536C136.516 40.3287 128.844 48 119.369 48C109.894 48 102.223 40.3287 102.223 30.8536C102.223 21.5059 109.912 13.8347 119.387 13.8347C128.862 13.8347 136.516 21.5059 136.516 30.8536ZM39.2309 46.1961L46.6653 47.7449V27.2457C46.6653 17.4061 38.994 13.944 33.7098 13.944C30.2295 13.944 27.3505 14.7822 24.8359 17.2968C22.1938 14.7822 19.0779 13.8165 16.5633 13.8165C12.8462 13.8165 9.73028 15.3653 7.56192 18.0074V14.5271L0 15.9666V46.1779L7.56192 47.7267V27.0088C7.56192 23.6561 9.96716 21.3784 13.6661 21.3784C17.1464 21.3784 19.661 23.6561 19.661 27.0088V46.1961L27.0954 47.7449V27.0088C27.0954 23.6561 29.61 21.3784 33.2178 21.3784C36.6981 21.3784 39.2127 23.6561 39.2127 27.0088L39.2309 46.1961ZM96.574 13.8347L92.1279 14.436C83.8554 16.3492 78.4618 18.9914 78.4618 28.1021V46.1961L86.0237 47.6356V29.1772C86.0237 24.9862 88.429 23.0548 92.1462 22.3441L96.5922 21.6335L96.574 13.8347ZM59.2746 1.35295C57.4706 3.19332 57.4706 6.10876 59.2746 7.94913C61.1149 9.84417 64.1579 9.86239 66.0347 8.02202C66.053 8.0038 66.0894 7.96735 66.1076 7.94913C67.9116 6.12698 67.9116 3.1751 66.1076 1.35295C64.1762 -0.450982 61.1878 -0.450982 59.2746 1.35295Z" fill="#3B3842"/>
</g>
</svg>
