<svg width="224" height="48" viewBox="0 0 224 48" fill="none" xmlns="http://www.w3.org/2000/svg">
<g opacity="0.5">
<path d="M73.4254 39.211V7.67836H80.2641L89.6314 23.4887H89.8074L99.1748 7.67836H105.926V39.211H99.9883V17.4636H99.8124L89.8953 33.9336H89.4555L79.5384 17.3316H79.3625V39.211H73.4254ZM122.329 39.6068C118.665 39.6068 115.857 38.5 113.908 36.2864C111.929 34.0875 110.939 31.1775 110.939 27.5566C110.939 23.9357 111.929 21.0039 113.908 18.761C115.887 16.518 118.694 15.3967 122.329 15.3967C125.936 15.3967 128.728 16.518 130.707 18.761C132.686 21.0039 133.676 23.9357 133.676 27.5566C133.676 31.1336 132.701 34.0288 130.751 36.2424C128.772 38.4853 125.965 39.6068 122.329 39.6068ZM122.329 34.3074C125.804 34.3074 127.541 32.0571 127.541 27.5566C127.541 22.9829 125.804 20.6959 122.329 20.6959C118.841 20.6959 117.096 22.9829 117.096 27.5566C117.096 32.0571 118.841 34.3074 122.329 34.3074ZM150.564 39.6068C147.764 39.6068 145.609 38.6319 144.099 36.6822H143.901L143.285 39.211H137.876V5.87523H143.901V18.3212H144.099C145.609 16.3714 147.764 15.3967 150.564 15.3967C153.54 15.3967 155.885 16.518 157.6 18.761C159.316 21.0039 160.173 23.9211 160.173 27.5127C160.173 31.1629 159.316 34.0875 157.6 36.2864C155.826 38.5 153.481 39.6068 150.564 39.6068ZM144.934 32.3723C145.785 33.6623 147.097 34.3074 148.87 34.3074C150.644 34.3074 151.964 33.6771 152.829 32.4163C153.635 31.1702 154.038 29.5356 154.038 27.5127C154.038 25.4456 153.635 23.7891 152.829 22.5431C151.949 21.3116 150.63 20.6959 148.87 20.6959C147.067 20.6959 145.755 21.3264 144.934 22.587C144.099 23.8039 143.681 25.4456 143.681 27.5127C143.681 29.5356 144.099 31.1556 144.934 32.3723ZM177.039 39.6068C174.239 39.6068 172.084 38.6319 170.574 36.6822H170.376L169.761 39.211H164.35V5.87523H170.376V18.3212H170.574C172.084 16.3714 174.239 15.3967 177.039 15.3967C180.014 15.3967 182.361 16.518 184.075 18.761C185.791 21.0039 186.648 23.9211 186.648 27.5127C186.648 31.1629 185.791 34.0875 184.075 36.2864C182.302 38.5 179.955 39.6068 177.039 39.6068ZM171.41 32.3723C172.259 33.6623 173.571 34.3074 175.345 34.3074C177.12 34.3074 178.438 33.6771 179.303 32.4163C180.111 31.1702 180.513 29.5356 180.513 27.5127C180.513 25.4456 180.111 23.7891 179.303 22.5431C178.424 21.3116 177.104 20.6959 175.345 20.6959C173.542 20.6959 172.23 21.3264 171.41 22.587C170.574 23.8039 170.157 25.4456 170.157 27.5127C170.157 29.5356 170.574 31.1556 171.41 32.3723ZM193.882 12.8678C192.636 12.8678 191.706 12.5379 191.09 11.8783C190.459 11.2479 190.144 10.3464 190.144 9.17363C190.144 8.07416 190.459 7.18726 191.09 6.51293C191.72 5.88256 192.652 5.56738 193.882 5.56738C195.04 5.56738 195.956 5.88256 196.632 6.51293C197.29 7.1726 197.621 8.0595 197.621 9.17363C197.621 10.3611 197.29 11.2625 196.632 11.8783C195.972 12.5379 195.056 12.8678 193.882 12.8678ZM190.826 39.211V15.7923H196.851V39.211H190.826ZM201.952 39.211V15.7923H207.362L207.802 18.4531H207.977C209.532 16.4154 211.753 15.3967 214.641 15.3967C217.25 15.3967 219.324 16.1442 220.863 17.6395C222.402 19.1787 223.173 21.2531 223.173 23.8624V39.211H217.126V25.5556C217.126 22.4331 215.681 20.8719 212.793 20.8719C211.372 20.8719 210.22 21.3557 209.341 22.3232C208.432 23.2761 207.977 24.5808 207.977 26.2373V39.211H201.952Z" fill="#3B3842"/>
<path fill-rule="evenodd" clip-rule="evenodd" d="M41.5432 0.392045C41.346 0.375884 41.1419 0.417466 40.9576 0.523886L25.6676 9.35159L10.3776 0.523886C10.2098 0.427047 10.0259 0.383897 9.8455 0.389095C9.66513 0.383897 9.48114 0.427047 9.31341 0.523886L1.45709 5.05973C1.14987 5.23711 0.971344 5.55181 0.954293 5.88155C0.943019 5.94188 0.937134 6.00411 0.937134 6.0677V41.8506C0.937134 41.9026 0.941094 41.9538 0.948718 42.0038C0.925318 42.374 1.10789 42.7432 1.45088 42.9412L9.30719 47.477C9.49945 47.588 9.7131 47.6284 9.91814 47.6064C10.1232 47.6284 10.3368 47.588 10.5291 47.477L18.3853 42.9412C18.5515 42.8453 18.6799 42.7093 18.7656 42.5525C18.8691 42.3941 18.9293 42.2049 18.9293 42.0017V24.7789L25.3344 28.4769C25.5187 28.5832 25.7226 28.6248 25.9198 28.6087C26.1169 28.6248 26.3208 28.5832 26.5051 28.4769L32.6878 24.9072V42.0017C32.6878 42.0979 32.7013 42.191 32.7265 42.2792C32.7841 42.5481 32.9512 42.7927 33.2082 42.9412L41.0645 47.477C41.253 47.5859 41.462 47.6269 41.6634 47.6076C41.8647 47.6269 42.0737 47.5859 42.2622 47.477L50.1186 42.9412C50.4651 42.7411 50.6479 42.3664 50.6199 41.9925C50.6264 41.9461 50.6298 41.8987 50.6298 41.8504V6.0677C50.6298 5.74698 50.48 5.46123 50.2466 5.27662C50.1744 5.19224 50.0866 5.11846 49.9849 5.05973L42.1287 0.523886C41.9443 0.417466 41.7404 0.375884 41.5432 0.392045ZM48.6139 41.4821V7.10554L26.001 20.1611C25.8341 20.2575 25.6512 20.3007 25.4717 20.296C25.2921 20.3007 25.1092 20.2575 24.9423 20.1611L2.95306 7.46561V41.4807L9.00078 44.9723V18.6672C9.00078 18.3829 9.11857 18.126 9.30803 17.9428C9.60665 17.5275 10.1773 17.3982 10.6297 17.6594L25.9197 26.487L41.2098 17.6594C41.6918 17.3809 42.3083 17.5462 42.5866 18.0283C42.6324 18.1075 42.6663 18.1905 42.6886 18.2749C42.7396 18.3956 42.7678 18.5281 42.7678 18.6672V44.8573L48.6139 41.4821ZM40.7519 44.9688L34.7038 41.4768V23.8582C34.7038 23.8206 34.7018 23.7835 34.6977 23.7469L40.7519 20.2515V44.9688ZM16.9133 41.4633V23.8582C16.9133 23.7798 16.9223 23.7034 16.9393 23.63L11.0167 20.2106V44.8677L16.9133 41.4633ZM47.0394 5.68685L25.4717 18.1389L4.15339 5.83082L9.8455 2.54448L25.0822 11.3414C25.2665 11.4478 25.4704 11.4894 25.6676 11.4733C25.8649 11.4894 26.0688 11.4478 26.2529 11.3414L41.5432 2.51366L47.0394 5.68685Z" fill="#3B3842"/>
<path d="M41.5408 0.391595L41.509 0.77853L41.5408 0.781123L41.5725 0.77853L41.5408 0.391595ZM25.6652 9.35114L25.4711 9.68736L25.6652 9.79943L25.8594 9.68736L25.6652 9.35114ZM9.8431 0.388644L9.8319 0.776713L9.8431 0.777024L9.85428 0.776713L9.8431 0.388644ZM0.951893 5.8811L1.33352 5.95235L1.33825 5.92694L1.33959 5.90115L0.951893 5.8811ZM0.946318 42.0034L1.33378 42.0279L1.33642 41.9861L1.3301 41.9448L0.946318 42.0034ZM9.91574 47.6059L9.95725 47.22L9.91574 47.2155L9.87423 47.22L9.91574 47.6059ZM18.7632 42.552L18.4382 42.3396L18.4298 42.3525L18.4225 42.3658L18.7632 42.552ZM18.9269 24.7785L19.121 24.4423L18.5387 24.1059V24.7785H18.9269ZM25.9174 28.6082L25.9491 28.2213L25.9173 28.2188L25.8856 28.2213L25.9174 28.6082ZM32.6854 24.9068H33.0736V24.2344L32.4913 24.5706L32.6854 24.9068ZM32.7241 42.2787L33.1038 42.1973L33.101 42.1846L33.0974 42.172L32.7241 42.2787ZM41.661 47.6072L41.6978 47.2208L41.661 47.2172L41.6241 47.2208L41.661 47.6072ZM50.6175 41.992L50.2332 41.9378L50.2273 41.9793L50.2304 42.0209L50.6175 41.992ZM50.2442 5.27617L49.9494 5.52878L49.9738 5.55735L50.0033 5.58069L50.2442 5.27617ZM48.6115 41.4816L48.8056 41.8178L48.9997 41.7057V41.4816H48.6115ZM48.6115 7.10509H48.9997V6.43267L48.4174 6.76889L48.6115 7.10509ZM25.4693 20.2956L25.4794 19.9069L25.4592 19.9074L25.4693 20.2956ZM2.95066 7.46516L3.14477 7.12895L2.56243 6.79274V7.46516H2.95066ZM2.95066 41.4802H2.56243V41.7043L2.75655 41.8164L2.95066 41.4802ZM8.99838 44.9719L8.80427 45.3081L9.38661 45.6443V44.9719H8.99838ZM9.30562 17.9423L9.57555 18.2212L9.60052 18.1972L9.6208 18.1689L9.30562 17.9423ZM25.9173 26.4865L25.7232 26.8227L25.9173 26.9348L26.1114 26.8227L25.9173 26.4865ZM42.6862 18.2745L42.3109 18.3739L42.3179 18.4004L42.3286 18.4257L42.6862 18.2745ZM42.7654 44.8568H42.3772V45.5292L42.9595 45.193L42.7654 44.8568ZM34.7014 41.4763H34.3132V41.7006L34.5073 41.8125L34.7014 41.4763ZM40.7495 44.9683L40.5553 45.3045L41.1377 45.6407V44.9683H40.7495ZM34.6953 23.7464L34.5012 23.4102L34.2816 23.5369L34.3094 23.7888L34.6953 23.7464ZM40.7495 20.251H41.1377V19.5786L40.5553 19.9148L40.7495 20.251ZM16.9109 41.4628L17.105 41.799L17.2992 41.6869V41.4628H16.9109ZM16.9369 23.6295L17.3152 23.7171L17.3799 23.4371L17.131 23.2933L16.9369 23.6295ZM11.0143 20.2102L11.2084 19.874L10.6261 19.5378V20.2102H11.0143ZM11.0143 44.8672H10.6261V45.5396L11.2084 45.2034L11.0143 44.8672ZM25.4693 18.1385L25.2752 18.4747L25.4693 18.5868L25.6634 18.4747L25.4693 18.1385ZM47.037 5.6864L47.2311 6.02262L47.8134 5.6864L47.2311 5.3502L47.037 5.6864ZM4.15098 5.83037L3.95687 5.49417L3.37454 5.83037L3.95687 6.16659L4.15098 5.83037ZM9.8431 2.54403L10.0372 2.20782L9.8431 2.09574L9.64898 2.20782L9.8431 2.54403ZM25.6652 11.4728L25.6969 11.0859L25.6652 11.0833L25.6336 11.0859L25.6652 11.4728ZM41.5408 2.51321L41.7349 2.17699L41.5408 2.06492L41.3467 2.17699L41.5408 2.51321ZM41.1493 0.859653C41.2632 0.79395 41.388 0.768607 41.509 0.77853L41.5725 0.00467788C41.2992 -0.0177459 41.0161 0.040084 40.7611 0.187221L41.1493 0.859653ZM25.8594 9.68736L41.1493 0.859653L40.7611 0.187221L25.4711 9.01494L25.8594 9.68736ZM10.1811 0.859653L25.4711 9.68736L25.8594 9.01494L10.5693 0.187221L10.1811 0.859653ZM9.85428 0.776713C9.9648 0.773514 10.0774 0.799805 10.1811 0.859653L10.5693 0.187221C10.3375 0.0533923 10.0821 -0.00662722 9.8319 0.000578222L9.85428 0.776713ZM9.50513 0.859653C9.60878 0.799805 9.7214 0.773514 9.8319 0.776713L9.85428 0.000578222C9.60408 -0.00662722 9.3487 0.0533923 9.1169 0.187221L9.50513 0.859653ZM1.6488 5.39549L9.50513 0.859653L9.1169 0.187221L1.26058 4.72307L1.6488 5.39549ZM1.33959 5.90115C1.35013 5.69722 1.46025 5.50435 1.6488 5.39549L1.26058 4.72307C0.834669 4.96898 0.587735 5.4055 0.564181 5.86105L1.33959 5.90115ZM1.32296 6.06725C1.32296 6.02766 1.32662 5.98929 1.33352 5.95235L0.570257 5.80984C0.554627 5.89356 0.546509 5.97963 0.546509 6.06725H1.32296ZM1.32296 41.8501V6.06725H0.546509V41.8501H1.32296ZM1.3301 41.9448C1.32543 41.9141 1.32296 41.8826 1.32296 41.8501H0.546509C0.546509 41.9219 0.551964 41.9927 0.562546 42.0619L1.3301 41.9448ZM1.64259 42.6045C1.4322 42.4831 1.31932 42.2565 1.33378 42.0279L0.558875 41.9788C0.526517 42.4905 0.77879 43.0024 1.25437 43.2769L1.64259 42.6045ZM9.4989 47.1404L1.64259 42.6045L1.25437 43.2769L9.11067 47.8128L9.4989 47.1404ZM9.87423 47.22C9.74826 47.2335 9.61752 47.2088 9.4989 47.1404L9.11067 47.8128C9.37659 47.9663 9.67313 48.0226 9.95725 47.992L9.87423 47.22ZM10.3326 47.1404C10.2139 47.2088 10.0832 47.2335 9.95725 47.22L9.87423 47.992C10.1583 48.0226 10.4549 47.9663 10.7208 47.8128L10.3326 47.1404ZM18.1888 42.6045L10.3326 47.1404L10.7208 47.8128L18.577 43.2769L18.1888 42.6045ZM18.4225 42.3658C18.37 42.4619 18.2915 42.5452 18.1888 42.6045L18.577 43.2769C18.8066 43.1444 18.985 42.9556 19.1039 42.7381L18.4225 42.3658ZM18.5387 42.0012C18.5387 42.1268 18.5017 42.2425 18.4382 42.3396L19.0883 42.7643C19.2317 42.5449 19.3151 42.2821 19.3151 42.0012H18.5387ZM18.5387 24.7785V42.0012H19.3151V24.7785H18.5387ZM25.5261 28.1402L19.121 24.4423L18.7328 25.1147L25.1379 28.8126L25.5261 28.1402ZM25.8856 28.2213C25.7646 28.2312 25.6398 28.2059 25.5261 28.1402L25.1379 28.8126C25.3927 28.9598 25.6758 29.0176 25.9491 28.9952L25.8856 28.2213ZM26.3086 28.1402C26.1948 28.2059 26.0701 28.2312 25.9491 28.2213L25.8857 28.9952C26.1589 29.0176 26.442 28.9597 26.6968 28.8126L26.3086 28.1402ZM32.4913 24.5706L26.3086 28.1402L26.6968 28.8126L32.8795 25.243L32.4913 24.5706ZM33.0736 42.0012V24.9068H32.2972V42.0012H33.0736ZM33.0974 42.172C33.082 42.1183 33.0736 42.061 33.0736 42.0012H32.2972C32.2972 42.1338 32.3158 42.2629 32.3508 42.3854L33.0974 42.172ZM33.3999 42.6045C33.2418 42.5132 33.1393 42.3635 33.1038 42.1973L32.3446 42.3601C32.4242 42.732 32.6556 43.0713 33.0117 43.2769L33.3999 42.6045ZM41.2562 47.1404L33.3999 42.6045L33.0117 43.2769L40.8679 47.8128L41.2562 47.1404ZM41.6241 47.2208C41.5004 47.2326 41.3725 47.2074 41.2562 47.1404L40.8679 47.8128C41.1287 47.9632 41.4188 48.0202 41.6978 47.9937L41.6241 47.2208ZM42.0657 47.1404C41.9494 47.2074 41.8214 47.2326 41.6978 47.2208L41.6241 47.9937C41.9031 48.0202 42.1933 47.9632 42.4539 47.8128L42.0657 47.1404ZM49.9221 42.6045L42.0657 47.1404L42.4539 47.8128L50.3103 43.2769L49.9221 42.6045ZM50.2304 42.0209C50.2476 42.2518 50.1345 42.4818 49.9221 42.6045L50.3103 43.2769C50.7906 42.9996 51.0433 42.4801 51.0046 41.9632L50.2304 42.0209ZM50.2392 41.85C50.2392 41.8801 50.2372 41.9094 50.2332 41.9378L51.002 42.0462C51.011 41.9819 51.0157 41.9164 51.0157 41.85H50.2392ZM50.2392 6.06725V41.85H51.0157V6.06725H50.2392ZM50.0033 5.58069C50.1477 5.69483 50.2392 5.87025 50.2392 6.06725H51.0157C51.0157 5.62281 50.8076 5.22673 50.485 4.97166L50.0033 5.58069ZM49.7884 5.39549C49.8516 5.43196 49.9053 5.4773 49.9494 5.52878L50.5391 5.02358C50.4384 4.90627 50.317 4.80407 50.1766 4.72307L49.7884 5.39549ZM41.9321 0.859653L49.7884 5.39549L50.1766 4.72307L42.3204 0.187221L41.9321 0.859653ZM41.5725 0.77853C41.6935 0.768607 41.8183 0.79395 41.9321 0.859653L42.3204 0.187221C42.0655 0.040084 41.7824 -0.0177304 41.509 0.00467788L41.5725 0.77853ZM48.9997 41.4816V7.10509H48.2232V41.4816H48.9997ZM48.4174 6.76889L25.8045 19.8244L26.1928 20.4968L48.8056 7.44131L48.4174 6.76889ZM25.8045 19.8244C25.7014 19.8839 25.5893 19.9098 25.4794 19.9069L25.4592 20.6837C25.7081 20.6902 25.9622 20.6301 26.1928 20.4968L25.8045 19.8244ZM25.4592 19.9074C25.3492 19.9103 25.2371 19.8839 25.134 19.8244L24.7458 20.4968C24.9764 20.6301 25.2304 20.6902 25.4794 20.6837L25.4592 19.9074ZM25.134 19.8244L3.14477 7.12895L2.75655 7.80138L24.7458 20.4968L25.134 19.8244ZM2.56243 7.46516V41.4802H3.33888V7.46516H2.56243ZM2.75655 41.8164L8.80427 45.3081L9.1925 44.6357L3.14477 41.144L2.75655 41.8164ZM9.38661 44.9719V18.6668H8.61016V44.9719H9.38661ZM9.38661 18.6668C9.38661 18.4919 9.45857 18.3344 9.57555 18.2212L9.0357 17.6633C8.77377 17.9165 8.61016 18.2729 8.61016 18.6668H9.38661ZM9.6208 18.1689C9.80417 17.9139 10.1552 17.8346 10.4332 17.9951L10.8214 17.3227C10.1946 16.9607 9.40433 17.1401 8.99043 17.7156L9.6208 18.1689ZM10.4332 17.9951L25.7232 26.8227L26.1114 26.1503L10.8214 17.3227L10.4332 17.9951ZM26.1114 26.8227L41.4015 17.9951L41.0133 17.3227L25.7232 26.1503L26.1114 26.8227ZM41.4015 17.9951C41.698 17.824 42.0769 17.9256 42.248 18.222L42.9206 17.8338C42.535 17.1659 41.681 16.9371 41.0133 17.3227L41.4015 17.9951ZM42.248 18.222C42.2766 18.2712 42.2972 18.3222 42.3109 18.3739L43.0616 18.1753C43.0305 18.0579 42.9836 17.9431 42.9206 17.8338L42.248 18.222ZM42.3286 18.4257C42.3598 18.4994 42.3772 18.5806 42.3772 18.6668H43.1537C43.1537 18.4748 43.1147 18.2908 43.0437 18.1232L42.3286 18.4257ZM42.3772 18.6668V44.8568H43.1537V18.6668H42.3772ZM42.9595 45.193L48.8056 41.8178L48.4174 41.1454L42.5713 44.5206L42.9595 45.193ZM34.5073 41.8125L40.5553 45.3045L40.9436 44.632L34.8955 41.1401L34.5073 41.8125ZM34.3132 23.8578V41.4763H35.0896V23.8578H34.3132ZM34.3094 23.7888C34.3119 23.8113 34.3132 23.8345 34.3132 23.8578H35.0896C35.0896 23.8059 35.0868 23.7547 35.0812 23.704L34.3094 23.7888ZM40.5553 19.9148L34.5012 23.4102L34.8894 24.0826L40.9436 20.5872L40.5553 19.9148ZM41.1377 44.9683V20.251H40.3612V44.9683H41.1377ZM16.5227 23.8578V41.4628H17.2992V23.8578H16.5227ZM16.5587 23.5419C16.5351 23.6438 16.5227 23.7497 16.5227 23.8578H17.2992C17.2992 23.809 17.3048 23.762 17.3152 23.7171L16.5587 23.5419ZM10.8202 20.5464L16.7428 23.9657L17.131 23.2933L11.2084 19.874L10.8202 20.5464ZM11.4025 44.8672V20.2102H10.6261V44.8672H11.4025ZM16.7168 41.1266L10.8202 44.531L11.2084 45.2034L17.105 41.799L16.7168 41.1266ZM25.6634 18.4747L47.2311 6.02262L46.8429 5.3502L25.2752 17.8023L25.6634 18.4747ZM3.95687 6.16659L25.2752 18.4747L25.6634 17.8023L4.3451 5.49417L3.95687 6.16659ZM9.64898 2.20782L3.95687 5.49417L4.3451 6.16659L10.0372 2.88025L9.64898 2.20782ZM25.2739 11.0048L10.0372 2.20782L9.64898 2.88025L24.8857 11.6772L25.2739 11.0048ZM25.6336 11.0859C25.5126 11.0958 25.3877 11.0704 25.2739 11.0048L24.8857 11.6772C25.1405 11.8244 25.4236 11.8821 25.6969 11.8598L25.6336 11.0859ZM26.0564 11.0048C25.9427 11.0704 25.8179 11.0958 25.6969 11.0859L25.6336 11.8598C25.9069 11.8821 26.19 11.8244 26.4446 11.6772L26.0564 11.0048ZM41.3467 2.17699L26.0564 11.0048L26.4446 11.6772L41.7349 2.84941L41.3467 2.17699ZM47.2311 5.3502L41.7349 2.17699L41.3467 2.84941L46.8429 6.02262L47.2311 5.3502Z" fill="#3B3842"/>
</g>
</svg>
