<svg width="264" height="48" viewBox="0 0 264 48" fill="none" xmlns="http://www.w3.org/2000/svg">
<g opacity="0.5">
<path d="M5.46762 37.9388C4.496 37.941 3.54122 37.6851 2.70084 37.1975C1.86045 36.7098 1.16458 36.0078 0.684311 35.1632C0.211394 34.3246 -0.024463 33.373 0.00200638 32.4105C0.0284758 31.4481 0.316274 30.511 0.834573 29.6996L10.685 14.231C11.1892 13.3997 11.905 12.717 12.7592 12.2529C13.6136 11.7887 14.5758 11.5596 15.5476 11.5889C16.5187 11.6122 17.4662 11.8931 18.2931 12.4028C19.12 12.9125 19.7966 13.6327 20.2537 14.4898C21.172 16.2262 21.0572 18.3152 19.9574 19.9451L10.1132 35.4136C9.61395 36.1915 8.92648 36.8308 8.11437 37.2723C7.30227 37.7137 6.39191 37.943 5.46762 37.9388Z" fill="#3B3842"/>
<path d="M22.3636 37.9389C20.3769 37.9389 18.5487 36.8767 17.5887 35.1695C17.1168 34.3331 16.8815 33.3841 16.908 32.4241C16.9344 31.4642 17.2217 30.5296 17.739 29.7205L27.5706 14.2874C28.0673 13.4444 28.7806 12.7496 29.6363 12.2752C30.4921 11.8006 31.4592 11.5637 32.4374 11.589C34.4409 11.6328 36.2565 12.7535 37.1748 14.5066C38.0868 16.2596 37.9532 18.3612 36.82 19.9869L26.9904 35.42C26.4928 36.1946 25.8081 36.8313 24.9994 37.2716C24.1908 37.7118 23.2843 37.9413 22.3636 37.9389Z" fill="#3B3842"/>
<path d="M38.8818 38.0682C41.6827 38.0682 43.9532 35.8453 43.9532 33.1033C43.9532 30.3613 41.6827 28.1384 38.8818 28.1384C36.0811 28.1384 33.8105 30.3613 33.8105 33.1033C33.8105 35.8453 36.0811 38.0682 38.8818 38.0682Z" fill="#3B3842"/>
<path d="M259.194 28.4264C260.725 28.4264 261.642 29.5158 261.642 31.3001V37.415H263.722V31.1603C263.722 28.1259 262.293 26.3666 259.605 26.3666C258.553 26.3666 256.883 26.6546 255.888 28.5892C255.656 28.0186 255.275 27.5212 254.783 27.1501C254.292 26.779 253.71 26.5479 253.098 26.4813C252.712 26.4108 252.32 26.3877 251.929 26.4125C251.073 26.4813 249.55 27.0135 248.98 28.2198V26.5982H246.897V37.415H248.98V31.5777C248.98 29.3071 250.466 28.4264 251.954 28.4264C253.348 28.4264 254.264 29.4929 254.264 31.2772V37.415H256.335V31.5777C256.335 29.7704 257.419 28.4055 259.194 28.4264ZM239.253 35.6076C240.204 35.6285 241.123 35.2487 241.788 34.56C242.456 33.8713 242.811 32.9342 242.775 31.9721C242.775 29.7933 241.173 28.4264 239.253 28.4264C237.331 28.4264 235.73 29.7933 235.73 31.9721C235.692 32.9321 236.047 33.8671 236.711 34.5537C237.375 35.2424 238.288 35.6243 239.236 35.6076H239.253ZM239.253 37.6361C236.21 37.6361 233.67 35.3885 233.67 31.9596C233.67 28.5308 236.21 26.3541 239.253 26.3541C242.295 26.3541 244.856 28.5308 244.856 31.9596C244.856 35.3885 242.281 37.6466 239.238 37.6466L239.253 37.6361ZM222.954 31.9596L222.933 31.9721C222.933 28.5433 225.539 26.3666 228.603 26.3541C229.373 26.3392 230.137 26.486 230.846 26.7852C231.555 27.0842 232.194 27.5289 232.72 28.0904L231.143 29.4344C230.808 29.1054 230.411 28.8459 229.975 28.6711C229.539 28.4963 229.072 28.4096 228.603 28.416C226.683 28.416 225.013 29.783 225.013 31.9596C225.013 33.431 225.888 34.7561 227.23 35.3196C228.571 35.8831 230.116 35.5701 231.143 34.5308L232.743 35.8748C232.215 36.442 231.573 36.892 230.86 37.1954C230.147 37.4988 229.378 37.649 228.603 37.6361C225.562 37.6361 222.954 35.3885 222.954 31.9596ZM216.29 35.3384C216.287 35.1493 216.323 34.9616 216.393 34.7861C216.464 34.6105 216.567 34.4505 216.7 34.3153C216.832 34.18 216.989 34.0721 217.163 33.9977C217.337 33.9233 217.524 33.8839 217.713 33.8817C217.902 33.8839 218.089 33.9233 218.263 33.9977C218.437 34.0721 218.594 34.18 218.726 34.3153C218.859 34.4505 218.963 34.6105 219.033 34.7861C219.104 34.9616 219.139 35.1493 219.136 35.3384C219.118 35.7047 218.96 36.05 218.696 36.304C218.431 36.5581 218.08 36.7016 217.713 36.7053C217.346 36.7016 216.995 36.5581 216.731 36.304C216.466 36.05 216.308 35.7047 216.29 35.3384Z" fill="#3B3842"/>
<path fill-rule="evenodd" clip-rule="evenodd" d="M221.983 12.8473H214.572L209.378 26.2393L204.211 12.8473H196.8L205.809 34.009L200.206 48H207.562L221.983 12.8473ZM176.913 24.6177C176.913 27.9986 179.868 30.2233 182.771 30.2233C185.624 30.2233 188.427 28.153 188.427 24.6156C188.427 21.0783 185.624 19.0059 182.771 19.0059C179.868 19.0059 176.913 21.2327 176.913 24.6156V24.6177ZM188.427 36.4341V33.7565C186.924 36.0313 183.418 36.8911 181.619 36.8911C175.663 36.8911 169.705 32.1955 169.705 24.6156C169.705 17.0379 175.661 12.3423 181.619 12.3423C183.12 12.3423 186.626 12.8431 188.427 15.4727V12.8556H195.335V36.4383L188.427 36.4362V36.4341ZM167.739 36.4341H160.831V33.504C159.677 35.6744 156.878 36.9391 153.973 36.9391C147.965 36.9391 142.658 32.1412 142.658 24.7116C142.658 17.1423 147.965 12.3381 153.973 12.3381C156.874 12.3381 159.681 13.5485 160.831 15.721V0H167.739V36.4341ZM160.681 24.5635C160.681 21.0282 158.128 18.9558 155.275 18.9558C152.32 18.9558 149.866 21.1784 149.866 24.5635C149.866 28.0571 152.32 30.2692 155.273 30.2692C158.181 30.2734 160.681 27.9485 160.681 24.5635ZM125.578 23.9541C125.578 20.3687 127.432 19.1562 129.883 19.1562C132.235 19.1562 133.939 20.7214 133.939 23.8518V36.4299H140.896V22.3388C140.896 15.623 137.591 12.3381 132.334 12.3381C129.581 12.3381 126.828 13.9033 125.576 16.2783V12.8473H118.622V36.4299H125.578V23.9541ZM104.494 36.8348C97.8861 36.8348 92.3746 31.9868 92.3746 24.5614C92.3746 17.1318 97.8799 12.3318 104.494 12.3318C111.107 12.3318 116.661 17.1318 116.661 24.5614C116.661 31.991 111.101 36.8369 104.494 36.8369V36.8348ZM104.494 29.9687C107.395 29.9687 109.801 27.8442 109.801 24.5635C109.801 21.3809 107.397 19.2084 104.494 19.2084C103.795 19.1974 103.101 19.3289 102.454 19.5947C101.807 19.8606 101.222 20.2553 100.733 20.7548C100.241 21.2569 99.8552 21.8529 99.5977 22.5071C99.3408 23.1615 99.2182 23.8607 99.2369 24.5635C99.2386 27.8484 101.641 29.9687 104.494 29.9687ZM79.9008 19.1583C81.9523 19.1583 83.7554 20.7756 83.7554 23.8539V36.4341H90.6635V23.04C90.6635 15.9193 87.2013 12.3339 81.6519 12.3339C80.003 12.3339 76.8977 12.8348 74.6439 16.5245C73.3417 13.7969 70.8395 12.3819 67.1412 12.3819C65.8571 12.3754 64.5989 12.7387 63.5158 13.4286C62.4327 14.1185 61.5715 15.1056 61.0351 16.272V12.8494H54.0728V36.432H61.0289V23.9541C61.0289 20.3687 62.9822 19.1562 65.0834 19.1562C67.087 19.1562 68.8862 20.7214 68.9381 23.7016V36.432H75.8959V23.9541C75.8959 20.5252 77.699 19.1604 79.9008 19.1604V19.1583Z" fill="#3B3842"/>
</g>
</svg>
