<svg width="116" height="48" viewBox="0 0 116 48" fill="none" xmlns="http://www.w3.org/2000/svg">
<g opacity="0.5">
<path fill-rule="evenodd" clip-rule="evenodd" d="M115.354 24.801C115.354 16.5981 111.38 10.1255 103.786 10.1255C96.16 10.1255 91.5459 16.5981 91.5459 24.737C91.5459 34.3818 96.9932 39.2523 104.812 39.2523C108.625 39.2523 111.508 38.3871 113.687 37.1695V30.761C111.508 31.8504 109.009 32.5233 105.837 32.5233C102.729 32.5233 99.9731 31.4339 99.6207 27.6528H115.29C115.29 27.2363 115.354 25.5701 115.354 24.801ZM99.5245 21.757C99.5245 18.1362 101.735 16.6302 103.754 16.6302C105.709 16.6302 107.792 18.1362 107.792 21.757H99.5245Z" fill="#3B3842"/>
<path fill-rule="evenodd" clip-rule="evenodd" d="M79.1775 10.1255C76.0373 10.1255 74.0186 11.5995 72.8971 12.6248L72.4805 10.6382H65.4312V47.9999L73.4418 46.3017L73.4739 37.2336C74.6274 38.0667 76.3257 39.2523 79.1454 39.2523C84.8811 39.2523 90.104 34.6381 90.104 24.4806C90.072 15.1882 84.7849 10.1255 79.1775 10.1255ZM77.2549 32.2029C75.3644 32.2029 74.2429 31.53 73.4739 30.6969L73.4418 18.8091C74.2749 17.8798 75.4285 17.239 77.2549 17.239C80.1708 17.239 82.1895 20.5073 82.1895 24.7049C82.1895 28.9986 80.2028 32.2029 77.2549 32.2029Z" fill="#3B3842"/>
<path fill-rule="evenodd" clip-rule="evenodd" d="M54.4084 8.23497L62.4512 6.50467V0L54.4084 1.69826V8.23497Z" fill="#3B3842"/>
<path d="M62.4512 10.6702H54.4084V38.7076H62.4512V10.6702Z" fill="#3B3842"/>
<path fill-rule="evenodd" clip-rule="evenodd" d="M45.7891 13.0415L45.2764 10.6703H38.3552V38.7078H46.3659V19.7064C48.2564 17.2391 51.4607 17.6877 52.454 18.0401V10.6703C51.4286 10.2858 47.6796 9.58087 45.7891 13.0415Z" fill="#3B3842"/>
<path fill-rule="evenodd" clip-rule="evenodd" d="M29.7677 3.7168L21.9493 5.38302L21.9172 31.0492C21.9172 35.7915 25.474 39.2842 30.2163 39.2842C32.8438 39.2842 34.7664 38.8035 35.8238 38.2268V31.7221C34.7984 32.1386 29.7357 33.6126 29.7357 28.8703V17.4952H35.8238V10.6701H29.7357L29.7677 3.7168Z" fill="#3B3842"/>
<path fill-rule="evenodd" clip-rule="evenodd" d="M8.1068 18.8091C8.1068 17.5594 9.13217 17.0788 10.8304 17.0788C13.2657 17.0788 16.3418 17.8157 18.777 19.1295V11.5995C16.1175 10.542 13.49 10.1255 10.8304 10.1255C4.32576 10.1255 0 13.522 0 19.1936C0 28.0374 12.1762 26.6275 12.1762 30.4406C12.1762 31.9145 10.8945 32.3951 9.10013 32.3951C6.44058 32.3951 3.04406 31.3057 0.35247 29.8318V37.4579C3.33244 38.7396 6.34445 39.2843 9.10013 39.2843C15.765 39.2843 20.3471 35.9839 20.3471 30.2483C20.3151 20.6996 8.1068 22.3978 8.1068 18.8091Z" fill="#3B3842"/>
</g>
</svg>
