<svg width="192" height="48" viewBox="0 0 192 48" fill="none" xmlns="http://www.w3.org/2000/svg">
<g opacity="0.5">
<path d="M61.842 18.7703C61.842 15.3468 58.5129 11.7108 52.752 11.7108C46.2827 11.7108 39.176 16.4565 38.0899 25.9243C36.9802 35.4865 42.93 39.7364 48.9271 39.7364C54.9241 39.7364 58.0643 37.3989 61.2753 34.2823C58.5129 30.8116 54.9477 32.4171 54.263 32.7713C53.5075 33.149 52.5395 33.6685 50.5562 33.6685C48.2424 33.6685 45.8813 32.6296 45.8813 28.3089C60.7087 26.8451 61.842 22.1938 61.842 18.7703ZM54.4991 19.3369C54.4047 20.3994 53.9797 22.2174 46.4716 23.2327C48.0535 17.6134 51.0756 17.1884 52.4686 17.1884C53.7672 17.1884 54.5936 18.2036 54.4991 19.3369ZM29.3776 20.2577C29.3776 20.2577 26.1902 30.2686 25.9305 31.0949C25.8361 30.245 23.4986 12.2774 23.4986 12.2774C18.0682 12.2774 15.1642 16.1495 13.6295 20.2341C13.6295 20.2341 9.75736 30.2686 9.42682 31.1185C9.40321 30.3394 8.83656 20.3522 8.83656 20.3522C8.50601 15.3468 3.92559 12.301 0.21875 12.301L4.70473 39.5239C10.3948 39.5002 13.4642 35.6517 15.0697 31.5671C15.0697 31.5671 18.4932 22.7132 18.6349 22.3119C18.6585 22.6896 21.0904 39.5239 21.0904 39.5239C26.8041 39.5239 29.8735 35.9115 31.5262 31.9685L39.5301 12.301C33.8872 12.301 30.9123 16.1495 29.3776 20.2577ZM82.808 11.6636C79.2901 11.6636 76.5985 13.576 74.3319 16.3856V16.362L76.3624 0C71.6875 0 67.8862 4.06099 67.1543 10.1053L63.6128 39.3114C66.3043 39.3114 69.1612 38.5322 70.6959 36.5489C72.0653 38.3197 74.1194 39.7364 77.1651 39.7364C85.051 39.7364 90.4578 30.5755 90.4578 21.9813C90.4106 14.1426 86.6093 11.6636 82.808 11.6636ZM82.0761 25.7118C81.2497 30.5047 78.5818 33.7629 76.0082 33.7629C73.4111 33.7629 72.3014 32.606 72.3014 32.606C72.7972 28.4033 73.1041 25.8298 74.0486 23.6104C74.993 21.391 77.236 17.8495 79.5734 17.8495C81.8636 17.8495 82.9025 20.8952 82.0761 25.7118ZM110.149 12.301H104.648L104.671 12.0177C105.049 8.42892 105.899 6.54009 108.709 6.23315C110.621 6.04427 111.471 5.05263 111.684 3.96655C111.849 3.11658 112.368 0.165273 112.368 0.165273C101.319 0.0944417 97.8479 4.86375 96.9507 12.1358L96.9271 12.301H96.809C95.0146 12.301 93.0313 14.3315 92.7008 16.9051L92.5828 17.8495H96.266L93.173 43.396L92.2286 47.9764C92.3466 47.9764 92.4883 48 92.6064 48C97.777 47.8111 101.083 43.7265 101.814 37.8003L104.223 17.8495H105.946C107.646 17.8495 109.629 16.1495 109.984 13.3163L110.149 12.301ZM138.765 11.8288C132.414 11.8288 126.416 16.5037 124.575 23.8465C122.733 31.1894 125.519 39.878 134.869 39.878C144.195 39.878 149.578 30.8352 149.578 23.3035C149.578 15.819 144.502 11.8288 138.765 11.8288ZM141.338 25.4757C141.008 28.8047 139.544 33.8574 135.53 33.8574C131.493 33.8574 132.059 27.9547 132.461 25.1451C132.886 22.1466 134.562 17.8731 138.174 17.8731C141.409 17.8731 141.716 21.7216 141.338 25.4757ZM180.957 20.2577C180.957 20.2577 177.769 30.2686 177.509 31.0949C177.415 30.245 175.078 12.2774 175.078 12.2774C169.647 12.2774 166.743 16.1495 165.208 20.2341C165.208 20.2341 161.336 30.2686 161.006 31.1185C160.982 30.3394 160.416 20.3522 160.416 20.3522C160.085 15.3468 155.505 12.301 151.798 12.301L156.26 39.5239C161.95 39.5002 165.02 35.6517 166.625 31.5671C166.625 31.5671 170.049 22.7132 170.167 22.3119C170.19 22.6896 172.622 39.5239 172.622 39.5239C178.336 39.5239 181.405 35.9115 183.058 31.9685L191.062 12.301C185.443 12.301 182.468 16.1495 180.957 20.2577ZM115.343 0.165273L110.716 37.4934L109.771 42.0974C109.889 42.0974 110.031 42.121 110.149 42.121C115.131 42.0502 118.672 37.6822 119.333 32.181L122.001 10.7664C122.804 4.22627 118.908 0.165273 115.343 0.165273Z" fill="#3B3842"/>
</g>
</svg>
